<svg id="Capa_1" enable-background="new 0 0 510 510" height="512" viewBox="0 0 510 510" width="512" xmlns="http://www.w3.org/2000/svg"><g><path d="m375 89c-5.257 0-10.307.906-15 2.57v-16.57c0-24.813-20.187-45-45-45-5.852 0-11.446 1.123-16.579 3.164-5.21-19.089-22.703-33.164-43.421-33.164s-38.211 14.075-43.421 33.164c-5.133-2.041-10.727-3.164-16.579-3.164-24.813 0-45 20.187-45 45v135h-5c-30.327 0-55 24.673-55 55v85c0 30.452 11.787 59.152 33.189 80.814 17.29 17.498 26.811 40.293 26.811 64.186v15h210v-15c0-23.893 9.521-46.688 26.81-64.186 21.403-21.662 33.19-50.362 33.19-80.814v-216c0-24.813-20.187-45-45-45zm15 261c0 22.507-8.711 43.719-24.53 59.728-19.247 19.481-31.218 44.013-34.529 70.272h-151.881c-3.311-26.259-15.282-50.791-34.53-70.272-15.819-16.009-24.53-37.221-24.53-59.728v-85c0-13.785 11.215-25 25-25h5v75h30c0-3.943 0-183.631 0-240 0-8.271 6.729-15 15-15s15 6.729 15 15v180h30c0-11.026 0-199.493 0-210 0-8.271 6.729-15 15-15s15 6.729 15 15v210h30v-180c0-8.271 6.729-15 15-15s15 6.729 15 15v180h30v-121c0-8.271 6.729-15 15-15s15 6.729 15 15z"/></g></svg>