<svg id="Capa_1" enable-background="new 0 0 510 510" height="512" viewBox="0 0 510 510" width="512" xmlns="http://www.w3.org/2000/svg"><g><path d="m360 77.57v-2.57c0-31.754-32.186-53.526-61.579-41.836-5.21-19.089-22.703-33.164-43.421-33.164s-38.211 14.075-43.421 33.164c-29.388-11.687-61.579 10.077-61.579 41.836v15h-5c-30.327 0-55 24.673-55 55v85c0 30.452 11.787 59.152 33.189 80.814 17.29 17.498 26.811 40.293 26.811 64.186v135h210c0-11.918 0-118.219 0-135 0-23.894 9.522-46.689 26.81-64.186 21.403-21.662 33.19-50.362 33.19-80.814v-110c0-31.081-30.875-52.756-60-42.43zm-30 402.43h-150v-90h150zm60-250c0 22.506-8.712 43.718-24.529 59.728-19.248 19.48-31.219 44.013-34.53 70.272h-151.881c-3.311-26.259-15.282-50.791-34.53-70.272-15.819-16.009-24.53-37.221-24.53-59.728v-85c0-13.785 11.215-25 25-25h5v75h30c0-11.467 0-108.646 0-120 0-8.271 6.729-15 15-15s15 6.729 15 15v45h30c0-34.934 0-42.601 0-75 0-8.271 6.729-15 15-15 8.272 0 15 6.729 15 15v75h30v-45c0-8.271 6.728-15 15-15s15 6.729 15 15v45h30c0-8.271 6.728-15 15-15s15 6.729 15 15z"/></g></svg>