<svg id="Capa_1" enable-background="new 0 0 510 510" height="512" viewBox="0 0 510 510" width="512" xmlns="http://www.w3.org/2000/svg"><g><path d="m358.406 183.152c-5.431-19.873-24.096-34.184-45.701-33.09l16.608-97.778c4.817-27.296-16.197-52.284-43.865-52.284-21.633 0-40.066 15.449-43.854 36.742l-22.303 120.482-20.19-120.298-.021-.124c-3.764-21.325-22.212-36.802-43.866-36.802-27.618 0-48.585 24.887-43.898 52.1l24.383 158.688c-25.915 4.43-45.699 27.054-45.699 54.212v85c0 30.452 11.787 59.152 33.189 80.814 17.29 17.497 26.811 40.292 26.811 64.186v15h210v-15c0-23.894 9.522-46.689 26.81-64.186 21.403-21.662 33.19-50.362 33.19-80.814v-124.376c0-31.399-31.547-54.382-61.594-42.472zm31.594 166.848c0 22.507-8.711 43.719-24.529 59.728-19.248 19.48-31.219 44.014-34.53 70.272h-151.881c-3.312-26.259-15.282-50.792-34.53-70.272-15.819-16.009-24.53-37.221-24.53-59.728v-85c0-13.785 11.215-25 25-25h25.539c-.077-.503 1.817 11.823-29.648-192.929-1.573-8.911 5.269-17.071 14.323-17.071 7.051 0 13.061 5.026 14.312 11.959l33.238 198.041h31.715l36.625-197.86.023-.124c1.227-6.962 7.251-12.016 14.321-12.016 8.981 0 15.913 8.057 14.306 17.166l-32.407 190.792 29.576 5.023 10.331-60.822c9.94-6.003 22.746 1.165 22.746 12.841v44.667h30v-14.667c0-8.317 6.822-15.227 15.432-14.994 8.033.221 14.568 7.227 14.568 15.618z"/></g></svg>